<?xml version="1.0" standalone="no"?>
<!DOCTYPE svg PUBLIC "-//W3C//DTD SVG 20010904//EN"
 "http://www.w3.org/TR/2001/REC-SVG-20010904/DTD/svg10.dtd">
<svg version="1.0" xmlns="http://www.w3.org/2000/svg"
 width="431.000000pt" height="431.000000pt" viewBox="0 0 431.000000 431.000000"
 preserveAspectRatio="xMidYMid meet">
<metadata>
Created by potrace 1.11, written by Peter Selinger 2001-2013
</metadata>
<g transform="translate(0.000000,431.000000) scale(0.100000,-0.100000)"
fill="#000000" stroke="none">
<path d="M1301 3946 c-40 -41 -51 -58 -51 -84 0 -35 -6 -37 -60 -22 -33 10
-36 8 -87 -42 -43 -43 -53 -59 -53 -86 0 -31 -2 -34 -22 -28 -76 21 -77 21
-129 -30 l-49 -48 0 -702 0 -701 173 -46 c94 -25 184 -49 200 -53 23 -5 27
-11 27 -40 0 -37 -6 -40 -60 -24 -33 10 -36 8 -87 -42 -43 -43 -53 -59 -53
-86 0 -31 -2 -34 -22 -28 -76 21 -77 21 -129 -30 l-49 -48 0 -301 0 -302 58
-16 c31 -8 76 -20 100 -27 l42 -11 0 -99 0 -99 53 -15 c28 -9 73 -20 100 -27
l47 -11 0 -102 0 -101 188 -49 c103 -27 192 -51 199 -53 9 -4 13 22 15 94 l3
99 92 -24 92 -25 3 -100 3 -100 195 -53 c107 -29 198 -53 203 -54 4 0 7 44 7
98 l0 99 95 -25 94 -25 3 -100 3 -101 199 -54 199 -53 53 52 c44 43 54 60 54
86 0 31 2 33 28 27 15 -4 36 -10 48 -15 17 -6 31 2 73 45 42 43 51 58 51 88
l0 36 47 -14 47 -14 53 52 53 53 -2 299 -3 300 -97 25 -98 26 0 100 0 101 -97
25 -98 25 -3 38 c-3 33 -1 37 15 32 10 -3 77 -21 148 -40 l130 -35 53 52 52
51 -2 700 -3 700 -97 25 -98 26 0 100 0 101 -97 25 -98 25 -3 102 c-2 85 -5
102 -20 106 -64 18 -203 55 -1147 307 -225 60 -415 111 -421 113 -6 3 -34 -19
-63 -48z m52 -478 l87 -23 2 -100 2 -100 3 98 c3 87 6 98 21 93 9 -3 47 -12
83 -21 36 -9 71 -20 77 -24 9 -6 12 -58 10 -202 l-3 -195 -92 25 -93 24 -2
101 -2 101 -3 -98 -4 -98 -30 6 c-16 4 -57 14 -92 23 l-62 17 -3 198 c-1 108
1 197 5 197 5 0 47 -10 96 -22z m-116 -172 c5 -4 5 -588 0 -592 -3 -3 -97 20
-169 42 -17 5 -18 28 -18 304 l0 299 92 -25 c51 -14 94 -26 95 -28z m1195
-116 c5 0 9 -46 10 -102 l2 -103 3 98 c2 53 7 97 10 97 15 0 169 -43 176 -50
8 -7 11 -380 3 -388 -3 -2 -46 6 -96 19 l-90 24 -2 100 -2 100 -3 -97 c-2 -54
-7 -98 -12 -98 -4 0 -21 4 -37 9 -16 5 -55 17 -86 26 l-58 16 0 198 0 199 87
-24 c49 -13 91 -24 95 -24z m-599 -240 c4 0 8 -46 9 -102 l2 -103 3 98 4 98
30 -6 c16 -4 57 -14 92 -23 l62 -17 6 -100 5 -100 2 98 c1 53 3 97 5 97 8 0
180 -49 183 -53 2 -2 3 -226 2 -499 l-3 -494 -192 50 -193 51 -2 100 -2 100
-3 -97 c-2 -54 -5 -98 -6 -98 -3 0 -143 38 -169 46 -17 5 -18 38 -18 504 l0
499 88 -25 c48 -13 90 -24 95 -24z m926 -49 c41 -11 76 -22 78 -24 4 -5 5
-588 1 -592 -2 -2 -43 8 -93 21 -49 13 -93 24 -98 24 -4 0 -6 -89 -5 -198 l3
-199 -97 26 -98 25 -2 100 -2 101 -3 -97 c-2 -54 -7 -98 -11 -98 -4 1 -45 11
-92 24 l-85 23 -3 300 -2 300 95 -25 95 -25 2 -101 2 -101 3 98 4 98 30 -6
c16 -4 57 -15 92 -24 l62 -18 6 -99 c5 -96 7 -22 9 399 0 89 2 98 18 93 9 -3
50 -14 91 -25z m-1406 -23 l87 -23 2 -100 2 -100 3 98 c2 53 5 97 6 97 8 0
180 -49 183 -53 2 -2 3 -137 2 -299 l-3 -295 -92 25 -93 25 -2 101 -2 101 -3
-98 -4 -98 -30 6 c-16 4 -57 14 -92 23 l-62 17 -3 298 c-1 163 1 297 5 297 5
0 47 -10 96 -22z m-115 -1173 c4 -3 3 -387 -1 -391 -3 -3 -98 21 -169 42 -16
5 -18 23 -18 204 l0 199 93 -26 c50 -14 93 -26 95 -28z m722 -189 l85 -23 3
-103 c2 -89 1 -102 -13 -96 -8 3 -54 16 -100 28 l-85 22 0 98 c0 72 3 98 13
98 6 0 50 -11 97 -24z m996 -268 l84 -22 1 -101 c1 -151 -2 -289 -6 -293 -1
-2 -43 8 -91 21 l-89 24 -3 196 c-2 142 1 197 9 197 6 0 49 -10 95 -22z"/>
<path d="M1844 2635 c0 -55 1 -76 3 -47 2 29 2 74 0 100 -2 26 -3 2 -3 -53z"/>
<path d="M2044 2585 c0 -55 1 -76 3 -47 2 29 2 74 0 100 -2 26 -3 2 -3 -53z"/>
<path d="M1844 2435 c0 -55 1 -76 3 -47 2 29 2 74 0 100 -2 26 -3 2 -3 -53z"/>
<path d="M2044 2385 c0 -55 1 -76 3 -47 2 29 2 74 0 100 -2 26 -3 2 -3 -53z"/>
<path d="M1844 2235 c0 -55 1 -76 3 -47 2 29 2 74 0 100 -2 26 -3 2 -3 -53z"/>
<path d="M2044 2185 c0 -55 1 -76 3 -47 2 29 2 74 0 100 -2 26 -3 2 -3 -53z"/>
<path d="M2044 1985 c0 -55 1 -76 3 -47 2 29 2 74 0 100 -2 26 -3 2 -3 -53z"/>
<path d="M2444 2275 c0 -55 1 -76 3 -47 2 29 2 74 0 100 -2 26 -3 2 -3 -53z"/>
<path d="M1444 2545 c0 -55 1 -76 3 -47 2 29 2 74 0 100 -2 26 -3 2 -3 -53z"/>
</g>
</svg>
